<mxfile host="app.diagrams.net" modified="2023-11-07T15:39:28.898Z" agent="Mozilla/5.0 (Windows NT 10.0; Win64; x64) AppleWebKit/537.36 (KHTML, like Gecko) Chrome/118.0.0.0 Safari/537.36" etag="J7iA9JqAu_gWRsudrzpS" version="22.0.8" type="device">
  <diagram name="Page-1" id="evOkxPoq57WneGMXD7mp">
    <mxGraphModel dx="1105" dy="604" grid="1" gridSize="10" guides="1" tooltips="1" connect="1" arrows="1" fold="1" page="1" pageScale="1" pageWidth="1200" pageHeight="1920" math="0" shadow="0">
      <root>
        <mxCell id="0" />
        <mxCell id="1" parent="0" />
        <mxCell id="t4cLmcIiakZL5A4RJEV5-1" value="Users" style="whiteSpace=wrap;html=1;align=center;" vertex="1" parent="1">
          <mxGeometry x="120" y="200" width="100" height="40" as="geometry" />
        </mxCell>
        <mxCell id="t4cLmcIiakZL5A4RJEV5-2" value="id" style="ellipse;whiteSpace=wrap;html=1;align=center;" vertex="1" parent="1">
          <mxGeometry x="10" y="100" width="90" height="40" as="geometry" />
        </mxCell>
        <mxCell id="t4cLmcIiakZL5A4RJEV5-3" value="first_name" style="ellipse;whiteSpace=wrap;html=1;align=center;" vertex="1" parent="1">
          <mxGeometry x="80" y="50" width="90" height="40" as="geometry" />
        </mxCell>
        <mxCell id="t4cLmcIiakZL5A4RJEV5-4" value="last_name" style="ellipse;whiteSpace=wrap;html=1;align=center;" vertex="1" parent="1">
          <mxGeometry x="190" y="70" width="90" height="40" as="geometry" />
        </mxCell>
        <mxCell id="t4cLmcIiakZL5A4RJEV5-5" value="dob" style="ellipse;whiteSpace=wrap;html=1;align=center;" vertex="1" parent="1">
          <mxGeometry x="5" y="240" width="100" height="40" as="geometry" />
        </mxCell>
        <mxCell id="t4cLmcIiakZL5A4RJEV5-6" value="" style="endArrow=none;html=1;rounded=0;entryX=0.5;entryY=1;entryDx=0;entryDy=0;" edge="1" parent="1" target="t4cLmcIiakZL5A4RJEV5-4">
          <mxGeometry relative="1" as="geometry">
            <mxPoint x="220" y="200" as="sourcePoint" />
            <mxPoint x="500" y="300" as="targetPoint" />
          </mxGeometry>
        </mxCell>
        <mxCell id="t4cLmcIiakZL5A4RJEV5-7" value="" style="endArrow=none;html=1;rounded=0;exitX=0.5;exitY=0;exitDx=0;exitDy=0;entryX=0.5;entryY=1;entryDx=0;entryDy=0;" edge="1" parent="1" source="t4cLmcIiakZL5A4RJEV5-1" target="t4cLmcIiakZL5A4RJEV5-3">
          <mxGeometry relative="1" as="geometry">
            <mxPoint x="340" y="300" as="sourcePoint" />
            <mxPoint x="500" y="300" as="targetPoint" />
          </mxGeometry>
        </mxCell>
        <mxCell id="t4cLmcIiakZL5A4RJEV5-8" value="" style="endArrow=none;html=1;rounded=0;exitX=0;exitY=0.5;exitDx=0;exitDy=0;entryX=0.5;entryY=1;entryDx=0;entryDy=0;" edge="1" parent="1" source="t4cLmcIiakZL5A4RJEV5-1" target="t4cLmcIiakZL5A4RJEV5-2">
          <mxGeometry relative="1" as="geometry">
            <mxPoint x="340" y="300" as="sourcePoint" />
            <mxPoint x="500" y="300" as="targetPoint" />
          </mxGeometry>
        </mxCell>
        <mxCell id="t4cLmcIiakZL5A4RJEV5-9" value="" style="endArrow=none;html=1;rounded=0;exitX=0;exitY=1;exitDx=0;exitDy=0;entryX=1;entryY=0;entryDx=0;entryDy=0;" edge="1" parent="1" source="t4cLmcIiakZL5A4RJEV5-1" target="t4cLmcIiakZL5A4RJEV5-5">
          <mxGeometry relative="1" as="geometry">
            <mxPoint x="340" y="300" as="sourcePoint" />
            <mxPoint x="500" y="300" as="targetPoint" />
          </mxGeometry>
        </mxCell>
        <mxCell id="t4cLmcIiakZL5A4RJEV5-10" value="description" style="ellipse;whiteSpace=wrap;html=1;align=center;" vertex="1" parent="1">
          <mxGeometry x="40" y="320" width="100" height="40" as="geometry" />
        </mxCell>
        <mxCell id="t4cLmcIiakZL5A4RJEV5-11" value="" style="endArrow=none;html=1;rounded=0;exitX=0.25;exitY=1;exitDx=0;exitDy=0;entryX=0.5;entryY=0;entryDx=0;entryDy=0;" edge="1" parent="1" source="t4cLmcIiakZL5A4RJEV5-1" target="t4cLmcIiakZL5A4RJEV5-10">
          <mxGeometry relative="1" as="geometry">
            <mxPoint x="340" y="300" as="sourcePoint" />
            <mxPoint x="500" y="300" as="targetPoint" />
          </mxGeometry>
        </mxCell>
        <mxCell id="t4cLmcIiakZL5A4RJEV5-12" value="Skills" style="whiteSpace=wrap;html=1;align=center;" vertex="1" parent="1">
          <mxGeometry x="600" y="90" width="100" height="40" as="geometry" />
        </mxCell>
        <mxCell id="t4cLmcIiakZL5A4RJEV5-13" value="id" style="ellipse;whiteSpace=wrap;html=1;align=center;" vertex="1" parent="1">
          <mxGeometry x="490" y="30" width="100" height="40" as="geometry" />
        </mxCell>
        <mxCell id="t4cLmcIiakZL5A4RJEV5-14" value="description" style="ellipse;whiteSpace=wrap;html=1;align=center;" vertex="1" parent="1">
          <mxGeometry x="700" y="30" width="100" height="40" as="geometry" />
        </mxCell>
        <mxCell id="t4cLmcIiakZL5A4RJEV5-15" value="" style="endArrow=none;html=1;rounded=0;exitX=0;exitY=0;exitDx=0;exitDy=0;entryX=0.5;entryY=1;entryDx=0;entryDy=0;" edge="1" parent="1" source="t4cLmcIiakZL5A4RJEV5-12" target="t4cLmcIiakZL5A4RJEV5-13">
          <mxGeometry relative="1" as="geometry">
            <mxPoint x="340" y="300" as="sourcePoint" />
            <mxPoint x="500" y="300" as="targetPoint" />
          </mxGeometry>
        </mxCell>
        <mxCell id="t4cLmcIiakZL5A4RJEV5-16" value="" style="endArrow=none;html=1;rounded=0;entryX=1;entryY=0;entryDx=0;entryDy=0;exitX=0.5;exitY=1;exitDx=0;exitDy=0;" edge="1" parent="1" source="t4cLmcIiakZL5A4RJEV5-14" target="t4cLmcIiakZL5A4RJEV5-12">
          <mxGeometry relative="1" as="geometry">
            <mxPoint x="340" y="300" as="sourcePoint" />
            <mxPoint x="500" y="300" as="targetPoint" />
          </mxGeometry>
        </mxCell>
        <mxCell id="t4cLmcIiakZL5A4RJEV5-29" value="jobs" style="whiteSpace=wrap;html=1;align=center;" vertex="1" parent="1">
          <mxGeometry x="840" y="660.41" width="100" height="40" as="geometry" />
        </mxCell>
        <mxCell id="t4cLmcIiakZL5A4RJEV5-32" value="id" style="ellipse;whiteSpace=wrap;html=1;align=center;fontStyle=4;" vertex="1" parent="1">
          <mxGeometry x="720" y="590.41" width="100" height="40" as="geometry" />
        </mxCell>
        <mxCell id="t4cLmcIiakZL5A4RJEV5-33" value="title" style="ellipse;whiteSpace=wrap;html=1;align=center;" vertex="1" parent="1">
          <mxGeometry x="840" y="550.41" width="100" height="40" as="geometry" />
        </mxCell>
        <mxCell id="t4cLmcIiakZL5A4RJEV5-34" value="salary" style="ellipse;whiteSpace=wrap;html=1;align=center;" vertex="1" parent="1">
          <mxGeometry x="970" y="560.41" width="100" height="40" as="geometry" />
        </mxCell>
        <mxCell id="t4cLmcIiakZL5A4RJEV5-35" value="location" style="ellipse;whiteSpace=wrap;html=1;align=center;" vertex="1" parent="1">
          <mxGeometry x="1050" y="720.41" width="100" height="40" as="geometry" />
        </mxCell>
        <mxCell id="t4cLmcIiakZL5A4RJEV5-36" value="" style="endArrow=none;html=1;rounded=0;entryX=0;entryY=0;entryDx=0;entryDy=0;exitX=0.5;exitY=1;exitDx=0;exitDy=0;" edge="1" parent="1" source="t4cLmcIiakZL5A4RJEV5-32" target="t4cLmcIiakZL5A4RJEV5-29">
          <mxGeometry relative="1" as="geometry">
            <mxPoint x="690" y="610.41" as="sourcePoint" />
            <mxPoint x="850" y="610.41" as="targetPoint" />
          </mxGeometry>
        </mxCell>
        <mxCell id="t4cLmcIiakZL5A4RJEV5-37" value="" style="endArrow=none;html=1;rounded=0;entryX=0.5;entryY=0;entryDx=0;entryDy=0;exitX=0.5;exitY=1;exitDx=0;exitDy=0;" edge="1" parent="1" source="t4cLmcIiakZL5A4RJEV5-33" target="t4cLmcIiakZL5A4RJEV5-29">
          <mxGeometry relative="1" as="geometry">
            <mxPoint x="690" y="610.41" as="sourcePoint" />
            <mxPoint x="850" y="610.41" as="targetPoint" />
          </mxGeometry>
        </mxCell>
        <mxCell id="t4cLmcIiakZL5A4RJEV5-39" value="" style="endArrow=none;html=1;rounded=0;entryX=1;entryY=0;entryDx=0;entryDy=0;exitX=0.5;exitY=1;exitDx=0;exitDy=0;" edge="1" parent="1" source="t4cLmcIiakZL5A4RJEV5-34" target="t4cLmcIiakZL5A4RJEV5-29">
          <mxGeometry relative="1" as="geometry">
            <mxPoint x="690" y="610.41" as="sourcePoint" />
            <mxPoint x="850" y="610.41" as="targetPoint" />
          </mxGeometry>
        </mxCell>
        <mxCell id="t4cLmcIiakZL5A4RJEV5-40" value="" style="endArrow=none;html=1;rounded=0;entryX=1;entryY=1;entryDx=0;entryDy=0;exitX=0;exitY=0.5;exitDx=0;exitDy=0;" edge="1" parent="1" source="t4cLmcIiakZL5A4RJEV5-35" target="t4cLmcIiakZL5A4RJEV5-29">
          <mxGeometry relative="1" as="geometry">
            <mxPoint x="690" y="610.41" as="sourcePoint" />
            <mxPoint x="850" y="610.41" as="targetPoint" />
          </mxGeometry>
        </mxCell>
        <mxCell id="t4cLmcIiakZL5A4RJEV5-49" value="companies" style="whiteSpace=wrap;html=1;align=center;" vertex="1" parent="1">
          <mxGeometry x="130" y="650" width="100" height="40" as="geometry" />
        </mxCell>
        <mxCell id="t4cLmcIiakZL5A4RJEV5-50" value="id" style="ellipse;whiteSpace=wrap;html=1;align=center;fontStyle=4;" vertex="1" parent="1">
          <mxGeometry x="20" y="570" width="100" height="40" as="geometry" />
        </mxCell>
        <mxCell id="t4cLmcIiakZL5A4RJEV5-51" value="" style="endArrow=none;html=1;rounded=0;exitX=0;exitY=0;exitDx=0;exitDy=0;entryX=0.5;entryY=1;entryDx=0;entryDy=0;" edge="1" parent="1" source="t4cLmcIiakZL5A4RJEV5-49" target="t4cLmcIiakZL5A4RJEV5-50">
          <mxGeometry relative="1" as="geometry">
            <mxPoint x="340" y="500" as="sourcePoint" />
            <mxPoint x="500" y="500" as="targetPoint" />
          </mxGeometry>
        </mxCell>
        <mxCell id="t4cLmcIiakZL5A4RJEV5-52" value="name" style="ellipse;whiteSpace=wrap;html=1;align=center;" vertex="1" parent="1">
          <mxGeometry x="130" y="570" width="100" height="40" as="geometry" />
        </mxCell>
        <mxCell id="t4cLmcIiakZL5A4RJEV5-53" value="" style="endArrow=none;html=1;rounded=0;exitX=0.5;exitY=0;exitDx=0;exitDy=0;entryX=0.5;entryY=1;entryDx=0;entryDy=0;" edge="1" parent="1" source="t4cLmcIiakZL5A4RJEV5-49" target="t4cLmcIiakZL5A4RJEV5-52">
          <mxGeometry relative="1" as="geometry">
            <mxPoint x="340" y="500" as="sourcePoint" />
            <mxPoint x="500" y="500" as="targetPoint" />
          </mxGeometry>
        </mxCell>
        <mxCell id="t4cLmcIiakZL5A4RJEV5-54" value="location" style="ellipse;whiteSpace=wrap;html=1;align=center;" vertex="1" parent="1">
          <mxGeometry x="260" y="570" width="100" height="40" as="geometry" />
        </mxCell>
        <mxCell id="t4cLmcIiakZL5A4RJEV5-55" value="" style="endArrow=none;html=1;rounded=0;exitX=1;exitY=0;exitDx=0;exitDy=0;entryX=0.5;entryY=1;entryDx=0;entryDy=0;" edge="1" parent="1" source="t4cLmcIiakZL5A4RJEV5-49" target="t4cLmcIiakZL5A4RJEV5-54">
          <mxGeometry relative="1" as="geometry">
            <mxPoint x="300" y="640" as="sourcePoint" />
            <mxPoint x="460" y="640" as="targetPoint" />
          </mxGeometry>
        </mxCell>
        <mxCell id="t4cLmcIiakZL5A4RJEV5-56" value="employee_count" style="ellipse;whiteSpace=wrap;html=1;align=center;" vertex="1" parent="1">
          <mxGeometry x="20" y="720" width="100" height="40" as="geometry" />
        </mxCell>
        <mxCell id="t4cLmcIiakZL5A4RJEV5-58" value="" style="endArrow=none;html=1;rounded=0;exitX=0;exitY=1;exitDx=0;exitDy=0;entryX=0.5;entryY=0;entryDx=0;entryDy=0;" edge="1" parent="1" source="t4cLmcIiakZL5A4RJEV5-49" target="t4cLmcIiakZL5A4RJEV5-56">
          <mxGeometry relative="1" as="geometry">
            <mxPoint x="340" y="500" as="sourcePoint" />
            <mxPoint x="500" y="500" as="targetPoint" />
          </mxGeometry>
        </mxCell>
        <mxCell id="t4cLmcIiakZL5A4RJEV5-59" value="description" style="ellipse;whiteSpace=wrap;html=1;align=center;" vertex="1" parent="1">
          <mxGeometry x="200" y="730" width="100" height="40" as="geometry" />
        </mxCell>
        <mxCell id="t4cLmcIiakZL5A4RJEV5-60" value="" style="endArrow=none;html=1;rounded=0;exitX=0.5;exitY=0;exitDx=0;exitDy=0;entryX=0.5;entryY=1;entryDx=0;entryDy=0;" edge="1" parent="1" source="t4cLmcIiakZL5A4RJEV5-59" target="t4cLmcIiakZL5A4RJEV5-49">
          <mxGeometry relative="1" as="geometry">
            <mxPoint x="140" y="700" as="sourcePoint" />
            <mxPoint x="80" y="730" as="targetPoint" />
          </mxGeometry>
        </mxCell>
        <mxCell id="t4cLmcIiakZL5A4RJEV5-63" value="has_skills" style="shape=rhombus;perimeter=rhombusPerimeter;whiteSpace=wrap;html=1;align=center;" vertex="1" parent="1">
          <mxGeometry x="360" y="140" width="120" height="60" as="geometry" />
        </mxCell>
        <mxCell id="t4cLmcIiakZL5A4RJEV5-64" value="" style="endArrow=none;html=1;rounded=0;exitX=0;exitY=0.5;exitDx=0;exitDy=0;entryX=1;entryY=0.5;entryDx=0;entryDy=0;" edge="1" parent="1" source="t4cLmcIiakZL5A4RJEV5-63" target="t4cLmcIiakZL5A4RJEV5-1">
          <mxGeometry relative="1" as="geometry">
            <mxPoint x="340" y="200" as="sourcePoint" />
            <mxPoint x="500" y="200" as="targetPoint" />
            <Array as="points">
              <mxPoint x="360" y="220" />
            </Array>
          </mxGeometry>
        </mxCell>
        <mxCell id="t4cLmcIiakZL5A4RJEV5-65" value="N" style="edgeLabel;html=1;align=center;verticalAlign=middle;resizable=0;points=[];" vertex="1" connectable="0" parent="t4cLmcIiakZL5A4RJEV5-64">
          <mxGeometry x="0.2578" y="-1" relative="1" as="geometry">
            <mxPoint as="offset" />
          </mxGeometry>
        </mxCell>
        <mxCell id="t4cLmcIiakZL5A4RJEV5-66" value="" style="endArrow=none;html=1;rounded=0;entryX=0;entryY=0.5;entryDx=0;entryDy=0;exitX=1;exitY=0.5;exitDx=0;exitDy=0;" edge="1" parent="1" source="t4cLmcIiakZL5A4RJEV5-63" target="t4cLmcIiakZL5A4RJEV5-12">
          <mxGeometry relative="1" as="geometry">
            <mxPoint x="340" y="200" as="sourcePoint" />
            <mxPoint x="500" y="200" as="targetPoint" />
            <Array as="points">
              <mxPoint x="600" y="170" />
            </Array>
          </mxGeometry>
        </mxCell>
        <mxCell id="t4cLmcIiakZL5A4RJEV5-67" value="M" style="edgeLabel;html=1;align=center;verticalAlign=middle;resizable=0;points=[];" vertex="1" connectable="0" parent="t4cLmcIiakZL5A4RJEV5-66">
          <mxGeometry x="-0.28" relative="1" as="geometry">
            <mxPoint as="offset" />
          </mxGeometry>
        </mxCell>
        <mxCell id="t4cLmcIiakZL5A4RJEV5-68" value="requires" style="shape=rhombus;perimeter=rhombusPerimeter;whiteSpace=wrap;html=1;align=center;" vertex="1" parent="1">
          <mxGeometry x="670" y="230" width="120" height="60" as="geometry" />
        </mxCell>
        <mxCell id="t4cLmcIiakZL5A4RJEV5-69" value="" style="endArrow=none;html=1;rounded=0;entryX=1;entryY=1;entryDx=0;entryDy=0;exitX=0.5;exitY=0;exitDx=0;exitDy=0;" edge="1" parent="1" source="t4cLmcIiakZL5A4RJEV5-68" target="t4cLmcIiakZL5A4RJEV5-12">
          <mxGeometry relative="1" as="geometry">
            <mxPoint x="340" y="200" as="sourcePoint" />
            <mxPoint x="500" y="200" as="targetPoint" />
            <Array as="points">
              <mxPoint x="730" y="130" />
            </Array>
          </mxGeometry>
        </mxCell>
        <mxCell id="t4cLmcIiakZL5A4RJEV5-70" value="N" style="edgeLabel;html=1;align=center;verticalAlign=middle;resizable=0;points=[];" vertex="1" connectable="0" parent="t4cLmcIiakZL5A4RJEV5-69">
          <mxGeometry x="-0.2585" y="-1" relative="1" as="geometry">
            <mxPoint as="offset" />
          </mxGeometry>
        </mxCell>
        <mxCell id="t4cLmcIiakZL5A4RJEV5-71" value="" style="endArrow=none;html=1;rounded=0;entryX=0.5;entryY=1;entryDx=0;entryDy=0;exitX=1;exitY=0.5;exitDx=0;exitDy=0;" edge="1" parent="1" source="t4cLmcIiakZL5A4RJEV5-29" target="t4cLmcIiakZL5A4RJEV5-68">
          <mxGeometry relative="1" as="geometry">
            <mxPoint x="340" y="200" as="sourcePoint" />
            <mxPoint x="500" y="200" as="targetPoint" />
            <Array as="points">
              <mxPoint x="940" y="470" />
              <mxPoint x="730" y="470" />
            </Array>
          </mxGeometry>
        </mxCell>
        <mxCell id="t4cLmcIiakZL5A4RJEV5-72" value="M" style="edgeLabel;html=1;align=center;verticalAlign=middle;resizable=0;points=[];" vertex="1" connectable="0" parent="t4cLmcIiakZL5A4RJEV5-71">
          <mxGeometry x="0.445" y="-3" relative="1" as="geometry">
            <mxPoint as="offset" />
          </mxGeometry>
        </mxCell>
        <mxCell id="t4cLmcIiakZL5A4RJEV5-73" value="has" style="shape=rhombus;perimeter=rhombusPerimeter;whiteSpace=wrap;html=1;align=center;" vertex="1" parent="1">
          <mxGeometry x="480" y="640" width="120" height="60" as="geometry" />
        </mxCell>
        <mxCell id="t4cLmcIiakZL5A4RJEV5-74" value="" style="endArrow=none;html=1;rounded=0;exitX=1;exitY=0.5;exitDx=0;exitDy=0;entryX=0;entryY=0.5;entryDx=0;entryDy=0;" edge="1" parent="1" source="t4cLmcIiakZL5A4RJEV5-49" target="t4cLmcIiakZL5A4RJEV5-73">
          <mxGeometry relative="1" as="geometry">
            <mxPoint x="340" y="500" as="sourcePoint" />
            <mxPoint x="500" y="500" as="targetPoint" />
          </mxGeometry>
        </mxCell>
        <mxCell id="t4cLmcIiakZL5A4RJEV5-75" value="1" style="edgeLabel;html=1;align=center;verticalAlign=middle;resizable=0;points=[];" vertex="1" connectable="0" parent="t4cLmcIiakZL5A4RJEV5-74">
          <mxGeometry x="-0.0096" relative="1" as="geometry">
            <mxPoint as="offset" />
          </mxGeometry>
        </mxCell>
        <mxCell id="t4cLmcIiakZL5A4RJEV5-76" value="" style="endArrow=none;html=1;rounded=0;entryX=1;entryY=0.5;entryDx=0;entryDy=0;exitX=0;exitY=0.25;exitDx=0;exitDy=0;" edge="1" parent="1" source="t4cLmcIiakZL5A4RJEV5-29" target="t4cLmcIiakZL5A4RJEV5-73">
          <mxGeometry relative="1" as="geometry">
            <mxPoint x="340" y="500" as="sourcePoint" />
            <mxPoint x="500" y="500" as="targetPoint" />
          </mxGeometry>
        </mxCell>
        <mxCell id="t4cLmcIiakZL5A4RJEV5-77" value="N" style="edgeLabel;html=1;align=center;verticalAlign=middle;resizable=0;points=[];" vertex="1" connectable="0" parent="t4cLmcIiakZL5A4RJEV5-76">
          <mxGeometry x="-0.0293" y="2" relative="1" as="geometry">
            <mxPoint as="offset" />
          </mxGeometry>
        </mxCell>
        <mxCell id="t4cLmcIiakZL5A4RJEV5-90" value="has_worked_in" style="shape=rhombus;perimeter=rhombusPerimeter;whiteSpace=wrap;html=1;align=center;" vertex="1" parent="1">
          <mxGeometry x="110" y="470" width="120" height="60" as="geometry" />
        </mxCell>
        <mxCell id="t4cLmcIiakZL5A4RJEV5-91" value="" style="endArrow=none;html=1;rounded=0;exitX=0.5;exitY=1;exitDx=0;exitDy=0;entryX=0.5;entryY=0;entryDx=0;entryDy=0;" edge="1" parent="1" source="t4cLmcIiakZL5A4RJEV5-1" target="t4cLmcIiakZL5A4RJEV5-90">
          <mxGeometry relative="1" as="geometry">
            <mxPoint x="390" y="340" as="sourcePoint" />
            <mxPoint x="550" y="340" as="targetPoint" />
          </mxGeometry>
        </mxCell>
        <mxCell id="t4cLmcIiakZL5A4RJEV5-92" value="N" style="edgeLabel;html=1;align=center;verticalAlign=middle;resizable=0;points=[];" vertex="1" connectable="0" parent="t4cLmcIiakZL5A4RJEV5-91">
          <mxGeometry x="0.43" relative="1" as="geometry">
            <mxPoint as="offset" />
          </mxGeometry>
        </mxCell>
        <mxCell id="t4cLmcIiakZL5A4RJEV5-93" value="" style="endArrow=none;html=1;rounded=0;exitX=1;exitY=0.5;exitDx=0;exitDy=0;entryX=0;entryY=0.5;entryDx=0;entryDy=0;" edge="1" parent="1" source="t4cLmcIiakZL5A4RJEV5-90" target="t4cLmcIiakZL5A4RJEV5-29">
          <mxGeometry relative="1" as="geometry">
            <mxPoint x="390" y="340" as="sourcePoint" />
            <mxPoint x="550" y="340" as="targetPoint" />
            <Array as="points">
              <mxPoint x="840" y="500" />
            </Array>
          </mxGeometry>
        </mxCell>
        <mxCell id="t4cLmcIiakZL5A4RJEV5-94" value="M" style="edgeLabel;html=1;align=center;verticalAlign=middle;resizable=0;points=[];" vertex="1" connectable="0" parent="t4cLmcIiakZL5A4RJEV5-93">
          <mxGeometry x="-0.0046" relative="1" as="geometry">
            <mxPoint x="-93" as="offset" />
          </mxGeometry>
        </mxCell>
        <mxCell id="t4cLmcIiakZL5A4RJEV5-97" value="status" style="ellipse;whiteSpace=wrap;html=1;align=center;" vertex="1" parent="1">
          <mxGeometry x="950" y="770.41" width="100" height="40" as="geometry" />
        </mxCell>
        <mxCell id="t4cLmcIiakZL5A4RJEV5-98" value="" style="endArrow=none;html=1;rounded=0;entryX=0.5;entryY=0;entryDx=0;entryDy=0;exitX=0.75;exitY=1;exitDx=0;exitDy=0;" edge="1" parent="1" source="t4cLmcIiakZL5A4RJEV5-29" target="t4cLmcIiakZL5A4RJEV5-97">
          <mxGeometry relative="1" as="geometry">
            <mxPoint x="740" y="650.41" as="sourcePoint" />
            <mxPoint x="900" y="650.41" as="targetPoint" />
          </mxGeometry>
        </mxCell>
        <mxCell id="t4cLmcIiakZL5A4RJEV5-115" value="notifications" style="whiteSpace=wrap;html=1;align=center;" vertex="1" parent="1">
          <mxGeometry x="440" y="300" width="100" height="40" as="geometry" />
        </mxCell>
        <mxCell id="t4cLmcIiakZL5A4RJEV5-116" value="read" style="ellipse;whiteSpace=wrap;html=1;align=center;" vertex="1" parent="1">
          <mxGeometry x="530" y="250" width="100" height="40" as="geometry" />
        </mxCell>
        <mxCell id="t4cLmcIiakZL5A4RJEV5-117" value="" style="endArrow=none;html=1;rounded=0;exitX=1;exitY=0.5;exitDx=0;exitDy=0;entryX=0.5;entryY=1;entryDx=0;entryDy=0;" edge="1" parent="1" source="t4cLmcIiakZL5A4RJEV5-115" target="t4cLmcIiakZL5A4RJEV5-116">
          <mxGeometry relative="1" as="geometry">
            <mxPoint x="410" y="320" as="sourcePoint" />
            <mxPoint x="570" y="320" as="targetPoint" />
          </mxGeometry>
        </mxCell>
        <mxCell id="t4cLmcIiakZL5A4RJEV5-118" value="content" style="ellipse;whiteSpace=wrap;html=1;align=center;" vertex="1" parent="1">
          <mxGeometry x="420" y="240" width="100" height="40" as="geometry" />
        </mxCell>
        <mxCell id="t4cLmcIiakZL5A4RJEV5-119" value="" style="endArrow=none;html=1;rounded=0;exitX=0.5;exitY=0;exitDx=0;exitDy=0;entryX=0.5;entryY=1;entryDx=0;entryDy=0;" edge="1" parent="1" source="t4cLmcIiakZL5A4RJEV5-115" target="t4cLmcIiakZL5A4RJEV5-118">
          <mxGeometry relative="1" as="geometry">
            <mxPoint x="410" y="320" as="sourcePoint" />
            <mxPoint x="570" y="320" as="targetPoint" />
          </mxGeometry>
        </mxCell>
        <mxCell id="t4cLmcIiakZL5A4RJEV5-120" value="id" style="ellipse;whiteSpace=wrap;html=1;align=center;fontStyle=4;" vertex="1" parent="1">
          <mxGeometry x="320" y="300" width="100" height="40" as="geometry" />
        </mxCell>
        <mxCell id="t4cLmcIiakZL5A4RJEV5-121" value="" style="endArrow=none;html=1;rounded=0;exitX=1;exitY=0.5;exitDx=0;exitDy=0;entryX=0;entryY=0.5;entryDx=0;entryDy=0;" edge="1" parent="1" source="t4cLmcIiakZL5A4RJEV5-120" target="t4cLmcIiakZL5A4RJEV5-115">
          <mxGeometry relative="1" as="geometry">
            <mxPoint x="410" y="320" as="sourcePoint" />
            <mxPoint x="570" y="320" as="targetPoint" />
          </mxGeometry>
        </mxCell>
        <mxCell id="t4cLmcIiakZL5A4RJEV5-122" value="date_sent" style="ellipse;whiteSpace=wrap;html=1;align=center;" vertex="1" parent="1">
          <mxGeometry x="590" y="320" width="100" height="40" as="geometry" />
        </mxCell>
        <mxCell id="t4cLmcIiakZL5A4RJEV5-123" value="" style="endArrow=none;html=1;rounded=0;entryX=0;entryY=0.5;entryDx=0;entryDy=0;" edge="1" parent="1" target="t4cLmcIiakZL5A4RJEV5-122">
          <mxGeometry relative="1" as="geometry">
            <mxPoint x="540" y="340" as="sourcePoint" />
            <mxPoint x="570" y="320" as="targetPoint" />
          </mxGeometry>
        </mxCell>
        <mxCell id="t4cLmcIiakZL5A4RJEV5-124" value="has_noti" style="shape=rhombus;perimeter=rhombusPerimeter;whiteSpace=wrap;html=1;align=center;" vertex="1" parent="1">
          <mxGeometry x="250" y="380" width="120" height="60" as="geometry" />
        </mxCell>
        <mxCell id="t4cLmcIiakZL5A4RJEV5-125" value="" style="endArrow=none;html=1;rounded=0;entryX=0.5;entryY=1;entryDx=0;entryDy=0;exitX=1;exitY=0.5;exitDx=0;exitDy=0;" edge="1" parent="1" source="t4cLmcIiakZL5A4RJEV5-124" target="t4cLmcIiakZL5A4RJEV5-115">
          <mxGeometry relative="1" as="geometry">
            <mxPoint x="390" y="430" as="sourcePoint" />
            <mxPoint x="100" y="360" as="targetPoint" />
            <Array as="points">
              <mxPoint x="490" y="410" />
            </Array>
          </mxGeometry>
        </mxCell>
        <mxCell id="t4cLmcIiakZL5A4RJEV5-126" value="M" style="edgeLabel;html=1;align=center;verticalAlign=middle;resizable=0;points=[];" vertex="1" connectable="0" parent="t4cLmcIiakZL5A4RJEV5-125">
          <mxGeometry x="-0.52" relative="1" as="geometry">
            <mxPoint as="offset" />
          </mxGeometry>
        </mxCell>
        <mxCell id="t4cLmcIiakZL5A4RJEV5-127" value="" style="endArrow=none;html=1;rounded=0;entryX=0;entryY=0.5;entryDx=0;entryDy=0;exitX=1;exitY=1;exitDx=0;exitDy=0;" edge="1" parent="1" source="t4cLmcIiakZL5A4RJEV5-1" target="t4cLmcIiakZL5A4RJEV5-124">
          <mxGeometry relative="1" as="geometry">
            <mxPoint x="210" y="410" as="sourcePoint" />
            <mxPoint x="610" y="340" as="targetPoint" />
            <Array as="points">
              <mxPoint x="220" y="410" />
            </Array>
          </mxGeometry>
        </mxCell>
        <mxCell id="t4cLmcIiakZL5A4RJEV5-128" value="N" style="edgeLabel;html=1;align=center;verticalAlign=middle;resizable=0;points=[];" vertex="1" connectable="0" parent="t4cLmcIiakZL5A4RJEV5-127">
          <mxGeometry x="-0.7452" y="1" relative="1" as="geometry">
            <mxPoint as="offset" />
          </mxGeometry>
        </mxCell>
        <mxCell id="t4cLmcIiakZL5A4RJEV5-129" value="reviews" style="whiteSpace=wrap;html=1;align=center;" vertex="1" parent="1">
          <mxGeometry x="400" y="880" width="100" height="40" as="geometry" />
        </mxCell>
        <mxCell id="t4cLmcIiakZL5A4RJEV5-130" value="has_review" style="shape=rhombus;perimeter=rhombusPerimeter;whiteSpace=wrap;html=1;align=center;" vertex="1" parent="1">
          <mxGeometry x="120" y="870" width="120" height="60" as="geometry" />
        </mxCell>
        <mxCell id="t4cLmcIiakZL5A4RJEV5-132" value="rating" style="ellipse;whiteSpace=wrap;html=1;align=center;" vertex="1" parent="1">
          <mxGeometry x="520" y="920" width="100" height="40" as="geometry" />
        </mxCell>
        <mxCell id="t4cLmcIiakZL5A4RJEV5-133" value="content" style="ellipse;whiteSpace=wrap;html=1;align=center;" vertex="1" parent="1">
          <mxGeometry x="520" y="850" width="100" height="40" as="geometry" />
        </mxCell>
        <mxCell id="t4cLmcIiakZL5A4RJEV5-134" value="id" style="ellipse;whiteSpace=wrap;html=1;align=center;fontStyle=4;" vertex="1" parent="1">
          <mxGeometry x="410" y="800" width="100" height="40" as="geometry" />
        </mxCell>
        <mxCell id="t4cLmcIiakZL5A4RJEV5-135" value="" style="endArrow=none;html=1;rounded=0;exitX=0.5;exitY=1;exitDx=0;exitDy=0;entryX=0.25;entryY=0;entryDx=0;entryDy=0;" edge="1" parent="1" source="t4cLmcIiakZL5A4RJEV5-134" target="t4cLmcIiakZL5A4RJEV5-129">
          <mxGeometry relative="1" as="geometry">
            <mxPoint x="450" y="840" as="sourcePoint" />
            <mxPoint x="610" y="840" as="targetPoint" />
          </mxGeometry>
        </mxCell>
        <mxCell id="t4cLmcIiakZL5A4RJEV5-136" value="" style="endArrow=none;html=1;rounded=0;entryX=0;entryY=0.5;entryDx=0;entryDy=0;exitX=1;exitY=0;exitDx=0;exitDy=0;" edge="1" parent="1" source="t4cLmcIiakZL5A4RJEV5-129" target="t4cLmcIiakZL5A4RJEV5-133">
          <mxGeometry relative="1" as="geometry">
            <mxPoint x="450" y="840" as="sourcePoint" />
            <mxPoint x="610" y="840" as="targetPoint" />
          </mxGeometry>
        </mxCell>
        <mxCell id="t4cLmcIiakZL5A4RJEV5-137" value="" style="endArrow=none;html=1;rounded=0;entryX=0;entryY=0.5;entryDx=0;entryDy=0;exitX=1;exitY=1;exitDx=0;exitDy=0;" edge="1" parent="1" source="t4cLmcIiakZL5A4RJEV5-129" target="t4cLmcIiakZL5A4RJEV5-132">
          <mxGeometry relative="1" as="geometry">
            <mxPoint x="450" y="840" as="sourcePoint" />
            <mxPoint x="610" y="840" as="targetPoint" />
          </mxGeometry>
        </mxCell>
        <mxCell id="t4cLmcIiakZL5A4RJEV5-138" value="" style="endArrow=none;html=1;rounded=0;entryX=0;entryY=0.5;entryDx=0;entryDy=0;exitX=1;exitY=0.5;exitDx=0;exitDy=0;" edge="1" parent="1" source="t4cLmcIiakZL5A4RJEV5-130" target="t4cLmcIiakZL5A4RJEV5-129">
          <mxGeometry relative="1" as="geometry">
            <mxPoint x="450" y="840" as="sourcePoint" />
            <mxPoint x="610" y="840" as="targetPoint" />
          </mxGeometry>
        </mxCell>
        <mxCell id="t4cLmcIiakZL5A4RJEV5-141" value="N" style="edgeLabel;html=1;align=center;verticalAlign=middle;resizable=0;points=[];" vertex="1" connectable="0" parent="t4cLmcIiakZL5A4RJEV5-138">
          <mxGeometry x="-0.055" relative="1" as="geometry">
            <mxPoint as="offset" />
          </mxGeometry>
        </mxCell>
        <mxCell id="t4cLmcIiakZL5A4RJEV5-139" value="" style="endArrow=none;html=1;rounded=0;exitX=0.5;exitY=1;exitDx=0;exitDy=0;entryX=0.5;entryY=0;entryDx=0;entryDy=0;" edge="1" parent="1" source="t4cLmcIiakZL5A4RJEV5-49" target="t4cLmcIiakZL5A4RJEV5-130">
          <mxGeometry relative="1" as="geometry">
            <mxPoint x="450" y="840" as="sourcePoint" />
            <mxPoint x="610" y="840" as="targetPoint" />
          </mxGeometry>
        </mxCell>
        <mxCell id="t4cLmcIiakZL5A4RJEV5-140" value="1" style="edgeLabel;html=1;align=center;verticalAlign=middle;resizable=0;points=[];" vertex="1" connectable="0" parent="t4cLmcIiakZL5A4RJEV5-139">
          <mxGeometry x="0.2111" relative="1" as="geometry">
            <mxPoint as="offset" />
          </mxGeometry>
        </mxCell>
        <mxCell id="t4cLmcIiakZL5A4RJEV5-142" value="applications" style="whiteSpace=wrap;html=1;align=center;" vertex="1" parent="1">
          <mxGeometry x="940" y="240" width="100" height="40" as="geometry" />
        </mxCell>
      </root>
    </mxGraphModel>
  </diagram>
</mxfile>
